<svg width="65" height="65" viewBox="0 0 65 65" fill="none" xmlns="http://www.w3.org/2000/svg">
<path d="M10.8333 24.375H46.0417L41.7083 27.625C41.4238 27.8384 41.1841 28.1057 41.0029 28.4118C40.8217 28.7178 40.7025 29.0566 40.6522 29.4086C40.6019 29.7607 40.6215 30.1193 40.7097 30.4638C40.798 30.8084 40.9533 31.1321 41.1667 31.4167C41.4189 31.753 41.7461 32.026 42.1221 32.2141C42.4982 32.4021 42.9129 32.5 43.3333 32.5C43.9193 32.5 44.4895 32.3099 44.9583 31.9583L55.7917 23.8333C56.1229 23.5806 56.3914 23.2548 56.5762 22.8814C56.761 22.5079 56.8571 22.0969 56.8571 21.6802C56.8571 21.2635 56.761 20.8525 56.5762 20.4791C56.3914 20.1056 56.1229 19.7798 55.7917 19.5271L45.3375 11.4021C44.77 10.9603 44.0504 10.7621 43.3367 10.851C42.6231 10.9399 41.974 11.3086 41.5323 11.876C41.0905 12.4435 40.8923 13.1632 40.9812 13.8768C41.0701 14.5904 41.4388 15.2395 42.0062 15.6813L46.2583 18.9583H10.8333C10.115 18.9583 9.42616 19.2437 8.91825 19.7516C8.41034 20.2595 8.125 20.9484 8.125 21.6667C8.125 22.385 8.41034 23.0738 8.91825 23.5817C9.42616 24.0897 10.115 24.375 10.8333 24.375ZM54.1667 43.3333H18.9583L23.2917 40.0833C23.8663 39.6524 24.2462 39.0108 24.3478 38.2997C24.4494 37.5886 24.2643 36.8663 23.8333 36.2917C23.4024 35.717 22.7608 35.3371 22.0497 35.2356C21.3386 35.134 20.6163 35.319 20.0417 35.75L9.20833 43.875C8.87709 44.1278 8.60862 44.4535 8.42383 44.827C8.23904 45.2004 8.1429 45.6115 8.1429 46.0281C8.1429 46.4448 8.23904 46.8558 8.42383 47.2293C8.60862 47.6027 8.87709 47.9285 9.20833 48.1813L19.6625 56.3063C20.1352 56.6731 20.7162 56.8731 21.3146 56.875C21.7282 56.874 22.1361 56.7783 22.507 56.5952C22.8778 56.4121 23.2019 56.1465 23.4542 55.8188C23.894 55.2541 24.0924 54.5384 24.0062 53.8279C23.9199 53.1175 23.5559 52.47 22.9937 52.0271L18.7417 48.75H54.1667C54.885 48.75 55.5738 48.4647 56.0817 47.9567C56.5897 47.4488 56.875 46.76 56.875 46.0417C56.875 45.3234 56.5897 44.6345 56.0817 44.1266C55.5738 43.6187 54.885 43.3333 54.1667 43.3333Z" fill="black"/>
</svg>
