<svg width="71" height="79" viewBox="0 0 71 79" fill="none" xmlns="http://www.w3.org/2000/svg">
<path d="M35.0275 79C34.0035 79 33.0435 78.808 32.1475 78.424C31.2515 78.04 30.8035 77.496 30.8035 76.792V55.768C24.1475 55.192 18.5795 53.56 14.0995 50.872C9.6835 48.184 6.3875 44.696 4.2115 40.408C2.0355 36.12 0.9475 31.32 0.9475 26.008C0.9475 20.824 2.0355 16.312 4.2115 12.472C6.4515 8.632 9.2995 5.656 12.7555 3.544C16.2755 1.368 19.9875 0.279995 23.8915 0.279995C24.8515 0.279995 25.5555 0.535995 26.0035 1.048C26.4515 1.496 26.6755 2.008 26.6755 2.584C26.6755 3.224 26.4195 3.8 25.9075 4.312C25.4595 4.824 24.7875 5.144 23.8915 5.272C19.6035 5.976 16.1795 8.088 13.6195 11.608C11.1235 15.064 9.8755 19.448 9.8755 24.76C9.8755 28.536 10.5475 32.216 11.8915 35.8C13.2355 39.32 15.4435 42.36 18.5155 44.92C21.5875 47.416 25.6835 49.048 30.8035 49.816V28.504C30.8035 23.832 31.6675 19.896 33.3955 16.696C35.1235 13.496 37.4915 11.096 40.4995 9.496C43.5715 7.832 46.9955 7 50.7715 7C54.0355 7 57.1395 7.736 60.0835 9.208C63.0275 10.616 65.4275 12.888 67.2835 16.024C69.1395 19.16 70.0675 23.32 70.0675 28.504C70.0675 33.56 69.1075 37.816 67.1875 41.272C65.3315 44.664 62.8675 47.384 59.7955 49.432C56.7875 51.48 53.4915 53.016 49.9075 54.04C46.3235 55 42.8355 55.576 39.4435 55.768V76.792C39.4435 77.496 38.9635 78.04 38.0035 78.424C37.1075 78.808 36.1155 79 35.0275 79ZM39.4435 50.104C44.9475 49.72 49.2675 48.472 52.4035 46.36C55.5395 44.184 57.7795 41.464 59.1235 38.2C60.4675 34.936 61.1395 31.512 61.1395 27.928C61.1395 23.384 60.1475 19.768 58.1635 17.08C56.2435 14.328 53.6195 12.952 50.2915 12.952C46.7715 12.952 44.0835 14.104 42.2275 16.408C40.3715 18.648 39.4435 22.68 39.4435 28.504V50.104Z" fill="#C3181E"/>
</svg>
