<svg width="20" height="20" viewBox="0 0 20 20" fill="none" xmlns="http://www.w3.org/2000/svg">
<g clip-path="url(#clip0_66_5)">
<path d="M4.16667 4.16665H5.83333V6.66665H14.1667V4.16665H15.8333V9.16665H17.5V4.16665C17.5 3.24998 16.75 2.49998 15.8333 2.49998H12.35C12 1.53331 11.0833 0.833313 10 0.833313C8.91667 0.833313 8 1.53331 7.65 2.49998H4.16667C3.25 2.49998 2.5 3.24998 2.5 4.16665V15.8333C2.5 16.75 3.25 17.5 4.16667 17.5H8.33333V15.8333H4.16667V4.16665ZM10 2.49998C10.4583 2.49998 10.8333 2.87498 10.8333 3.33331C10.8333 3.79165 10.4583 4.16665 10 4.16665C9.54167 4.16665 9.16667 3.79165 9.16667 3.33331C9.16667 2.87498 9.54167 2.49998 10 2.49998Z" fill="black"/>
<path d="M15.0083 10.8333L13.825 12.0083L15.1417 13.325H10V14.9916H15.1417L13.825 16.3166L15.0083 17.4916L18.3333 14.1583L15.0083 10.8333Z" fill="black"/>
</g>
<defs>
<clipPath id="clip0_66_5">
<rect width="20" height="20" fill="white"/>
</clipPath>
</defs>
</svg>
